<svg xmlns="http://www.w3.org/2000/svg" viewBox="0 0 36 36" stroke-linecap="round" stroke-linejoin="round">
  <rect data-part="post" x="18.4" y="22" width="4.4" height="11.6" rx="0.8" ry="0.8" fill="brown" stroke="ink" stroke-width="1.75"/>
  <g id="mailbox" stroke="ink">
    <path d="M9.6 6.4 L27 6.4 Q32.4 6.4 32.4 11.8 L32.4 23 L9.6 23 Z" fill="blue" stroke="none"/>
    <path d="M32.4 13.6 L32.4 23 L19.6 23 C26.6 21.6 31 18.4 32.4 13.6 Z" fill="blue-shade" stroke="none"/>
    <path d="M9.6 6.4 L27 6.4 Q32.4 6.4 32.4 11.8 L32.4 23 L9.6 23 Z" fill="none"/>
  </g>
  <g id="door" stroke="ink">
    <path d="M3.6 23 L3.6 12.4 A6 6 0 0 1 15.6 12.4 L15.6 23 Z" fill="blue"/>
    <circle cx="9.6" cy="10.6" r="1.2" fill="silver" stroke-width="1.25"/>
  </g>
  <g id="flag" stroke="ink" transform="rotate(-90 27.4 16)">
    <path d="M27.4 16 L27.4 4.2" fill="none" stroke-width="1.75"/>
    <path d="M27.4 3.4 L33.4 3.4 L33.4 8.6 L27.4 8.6 Z" fill="red" stroke-width="1.75"/>
    <circle cx="27.4" cy="16" r="1.3" fill="silver" stroke-width="1.25"/>
  </g>
</svg>
