<svg xmlns="http://www.w3.org/2000/svg" xmlns:xlink="http://www.w3.org/1999/xlink" width="24.0" height="24.0" stroke-linecap="round" viewBox="0 0 24.0 24.0"><g transform="scale(0.1875 0.1875)"><g><path d="M14.085 24.169 C14.085 24.169, 14.085 24.169, 14.085 24.169 M14.085 24.169 C14.085 24.169, 14.085 24.169, 14.085 24.169 M11.2 33.586 C12.461 30.04, 16.265 27.068, 21.04 22.265 M11.2 33.586 C13.788 30.645, 15.024 28.102, 21.04 22.265 M10.938 39.984 C16.028 35.688, 19.819 29.393, 26.683 21.871 M10.938 39.984 C15.932 32.87, 22.883 27.186, 26.683 21.871 M11.333 45.627 C16.889 41.93, 20.437 36.25, 29.046 25.25 M11.333 45.627 C16.188 38.32, 21.892 32.135, 29.046 25.25 M11.071 52.024 C18.852 44.369, 24.855 38.889, 31.409 28.628 M11.071 52.024 C16.833 44.798, 23.837 37.165, 31.409 28.628 M10.81 58.422 C19.603 47.487, 29.519 39.929, 34.428 31.253 M10.81 58.422 C18.534 49.991, 26.198 41.9, 34.428 31.253 M42.957 21.442 C42.957 21.442, 42.957 21.442, 42.957 21.442 M42.957 21.442 C42.957 21.442, 42.957 21.442, 42.957 21.442 M11.204 64.065 C17.457 57.825, 21.246 53.702, 36.791 34.632 M11.204 64.065 C18.1 56.618, 25.625 48.114, 36.791 34.632 M45.319 24.82 C46.462 23.625, 47.162 22.978, 47.944 21.802 M45.319 24.82 C46.047 23.983, 46.902 22.951, 47.944 21.802 M10.943 70.463 C20.094 59.749, 29.976 48.517, 39.81 37.256 M10.943 70.463 C18.208 61.772, 25.38 52.392, 39.81 37.256 M47.682 28.199 C49.963 27.088, 51.219 25.438, 53.587 21.407 M47.682 28.199 C49.84 25.541, 52.067 23.749, 53.587 21.407 M10.681 76.861 C22.449 63.216, 33.477 52.403, 44.797 37.616 M10.681 76.861 C17.749 69.036, 25.814 59.387, 44.797 37.616 M50.045 31.578 C51.789 29.105, 53.275 28.311, 55.95 24.786 M50.045 31.578 C51.576 29.664, 52.903 27.941, 55.95 24.786 M11.076 82.504 C23.873 67.509, 40.273 49.766, 49.784 37.976 M11.076 82.504 C24.073 67.288, 35.752 52.046, 49.784 37.976 M51.752 35.712 C53.501 34.073, 55.758 31.326, 58.312 28.165 M51.752 35.712 C53.844 32.797, 56.844 30.392, 58.312 28.165 M10.815 88.902 C27.233 69.861, 44.379 50.644, 60.675 31.544 M10.815 88.902 C22.91 74.857, 36.09 59.457, 60.675 31.544 M69.204 21.733 C69.204 21.733, 69.204 21.733, 69.204 21.733 M69.204 21.733 C69.204 21.733, 69.204 21.733, 69.204 21.733 M11.209 94.545 C26.881 76.603, 37.665 63.598, 63.038 34.923 M11.209 94.545 C26.823 77.623, 41.157 61.084, 63.038 34.923 M71.567 25.112 C72.526 24.48, 73.152 22.79, 74.847 21.338 M71.567 25.112 C72.752 23.712, 73.71 22.342, 74.847 21.338 M12.26 99.433 C18.33 92.698, 23.655 89.104, 33.254 75.283 M12.26 99.433 C20.23 90.191, 27.733 81.064, 33.254 75.283 M34.566 73.773 C43.618 62.29, 52.364 54.154, 66.057 37.547 M34.566 73.773 C43.898 63.426, 53.201 53.452, 66.057 37.547 M73.929 28.491 C76.587 25.449, 78.03 23.415, 79.834 21.698 M73.929 28.491 C76.357 25.908, 78.226 24.113, 79.834 21.698 M13.967 103.567 C22.646 94.413, 30.405 85.292, 36.929 77.152 M13.967 103.567 C22.011 95.69, 28.676 86.099, 36.929 77.152 M43.489 69.605 C44.997 68.613, 46.355 66.034, 49.394 62.813 M43.489 69.605 C44.808 67.3, 47.105 65.741, 49.394 62.813 M54.642 56.775 C59.418 51.27, 64.53 46.15, 71.044 37.907 M54.642 56.775 C59.983 50.234, 65.573 45.79, 71.044 37.907 M76.292 31.869 C77.849 29.879, 79.849 26.235, 82.197 25.077 M76.292 31.869 C77.831 30.319, 79.415 28.483, 82.197 25.077 M17.641 105.436 C25.056 96.234, 30.594 89.806, 40.604 79.022 M17.641 105.436 C23.994 99.315, 29.775 90.853, 40.604 79.022 M57.005 60.154 C65.495 50.302, 73.881 41.185, 76.687 37.513 M57.005 60.154 C61.983 54.311, 67.668 48.293, 76.687 37.513 M78.655 35.248 C80.726 33.567, 81.938 32.735, 84.56 28.456 M78.655 35.248 C80.23 33.481, 81.599 31.698, 84.56 28.456 M21.316 107.306 C28.601 98.933, 37.995 87.471, 44.935 80.136 M21.316 107.306 C30.635 98.365, 38.565 87.379, 44.935 80.136 M58.712 64.287 C67.042 53.923, 76.809 42.217, 87.578 31.08 M58.712 64.287 C67.978 53.58, 78.607 41.87, 87.578 31.08 M96.107 21.269 C96.107 21.269, 96.107 21.269, 96.107 21.269 M96.107 21.269 C96.107 21.269, 96.107 21.269, 96.107 21.269 M26.959 106.911 C33.017 96.852, 41.415 88.975, 47.953 82.761 M26.959 106.911 C32.628 99.856, 40.035 92.266, 47.953 82.761 M60.418 68.421 C69.748 58.877, 77.942 44.789, 89.941 34.459 M60.418 68.421 C70.01 56.673, 80.759 45.157, 89.941 34.459 M98.47 24.648 C99.766 23.391, 100.405 22.487, 101.094 21.629 M98.47 24.648 C99.272 23.711, 99.6 23.157, 101.094 21.629 M31.946 107.271 C35.338 100.97, 40.926 98.558, 49.66 86.894 M31.946 107.271 C38.059 100, 44.997 92.33, 49.66 86.894 M64.093 70.291 C67.539 66.996, 68.932 62.504, 72.622 60.479 M64.093 70.291 C66.588 68.15, 67.698 65.716, 72.622 60.479 M76.558 55.951 C78.724 54.498, 79.766 51.497, 82.463 49.159 M76.558 55.951 C78.274 53.623, 80.226 51.584, 82.463 49.159 M86.399 44.631 C88.986 41.792, 91.496 40.116, 92.96 37.083 M86.399 44.631 C88.091 42.678, 90.309 40.343, 92.96 37.083 M100.833 28.027 C102.629 26.381, 104.084 24.842, 106.737 21.235 M100.833 28.027 C102.99 26.069, 104.602 24.029, 106.737 21.235 M37.59 106.877 C43.259 103.851, 44.589 99.882, 51.367 91.028 M37.59 106.877 C42.498 101.05, 45.334 97.046, 51.367 91.028 M67.768 72.16 C71.04 69.049, 72.198 67.137, 76.297 62.349 M67.768 72.16 C70.491 69.656, 72.509 66.176, 76.297 62.349 M88.106 48.764 C90.437 46.213, 92.271 42.542, 97.947 37.444 M88.106 48.764 C91.631 44.676, 95.107 40.85, 97.947 37.444 M103.195 31.406 C106.114 29.476, 106.758 26.096, 111.724 21.595 M103.195 31.406 C106.101 28.889, 108.61 25.218, 111.724 21.595 M42.577 107.237 C44.962 103.257, 46.615 102.631, 53.074 95.162 M42.577 107.237 C45.815 103.221, 49.317 98.393, 53.074 95.162 M56.354 91.388 C59.608 87.395, 65.719 82.978, 67.507 78.558 M56.354 91.388 C60.752 87.354, 64.467 82.554, 67.507 78.558 M72.099 73.275 C75.876 71.124, 76.619 67.694, 80.628 63.464 M72.099 73.275 C74.677 69.805, 76.838 67.355, 80.628 63.464 M89.813 52.898 C91.176 48.621, 95.863 45.157, 102.934 37.804 M89.813 52.898 C92.422 49.696, 97.198 45.081, 102.934 37.804 M105.558 34.785 C109.696 30.768, 112.449 28.76, 116.055 22.709 M105.558 34.785 C109.055 30.466, 113.177 25.803, 116.055 22.709 M48.22 106.842 C55.223 99.296, 63.843 89.861, 82.335 67.597 M48.22 106.842 C57.991 95.392, 68.9 83.745, 82.335 67.597 M93.488 54.767 C104.207 45.327, 113.198 30.758, 117.762 26.843 M93.488 54.767 C102.285 45.247, 110.191 35.014, 117.762 26.843 M53.207 107.202 C59.959 98.804, 66.532 93.498, 84.041 71.731 M53.207 107.202 C63.392 93.325, 74.422 80.832, 84.041 71.731 M90.602 64.184 C90.602 64.184, 90.602 64.184, 90.602 64.184 M90.602 64.184 C90.602 64.184, 90.602 64.184, 90.602 64.184 M97.163 56.637 C104.8 45.686, 111.763 40.002, 117.5 33.241 M97.163 56.637 C103.995 48.845, 108.946 42.28, 117.5 33.241 M58.85 106.808 C71.79 93.423, 81.903 79.512, 99.525 60.016 M58.85 106.808 C70.972 92.773, 84.074 77.607, 99.525 60.016 M100.838 58.506 C107.626 49.979, 111.464 45.481, 117.239 39.639 M100.838 58.506 C104.991 52.306, 110.649 46.396, 117.239 39.639 M63.837 107.168 C76.071 92.193, 89.15 77.54, 117.634 45.282 M63.837 107.168 C76.792 91.629, 90.537 76.289, 117.634 45.282 M69.48 106.773 C79.868 96.441, 91.484 82.083, 117.372 51.68 M69.48 106.773 C84.567 89.788, 100.6 71.568, 117.372 51.68 M74.467 107.133 C85.754 92.172, 95.583 81.742, 117.767 57.323 M74.467 107.133 C90.492 89.512, 105.598 71.672, 117.767 57.323 M80.11 106.739 C88.409 99.385, 95.396 88.656, 117.505 63.72 M80.11 106.739 C87.48 96.964, 95.457 88.231, 117.505 63.72 M85.097 107.099 C98.783 93.247, 108.475 77.169, 117.244 70.118 M85.097 107.099 C96.555 93.764, 110.011 78.242, 117.244 70.118 M90.74 106.704 C98.784 96.149, 107.94 89.324, 117.638 75.761 M90.74 106.704 C98.788 97.066, 107.953 88.754, 117.638 75.761 M95.727 107.064 C104.206 95.74, 113.458 88.126, 117.377 82.159 M95.727 107.064 C99.678 100.767, 106.173 96.907, 117.377 82.159 M101.37 106.67 C106.226 100.58, 112.335 93.775, 117.772 87.802 M101.37 106.67 C106.736 99.336, 112.817 93.619, 117.772 87.802 M106.357 107.03 C109.447 104.914, 112.063 100.668, 117.51 94.2 M106.357 107.03 C109.239 105.112, 111.403 101.438, 117.51 94.2" stroke="black" stroke-width="0.5" fill="none"></path><path d="M114.667 21.333 C110.345 20.991, 103.055 23.094, 96 21.333 M114.667 21.333 C108.929 21.154, 102.227 21.006, 96 21.333 M96 21.333 C99.777 27.205, 100.958 30.264, 105.28 35.253 M96 21.333 C98.446 24.624, 101.889 29.272, 105.28 35.253 M105.28 35.253 C104.911 37.871, 104.911 39.024, 104.16 37.333 M105.28 35.253 C107.969 35.658, 103.396 35.35, 104.16 37.333 M104.16 37.333 C101.162 36.25, 97.712 37.177, 93.493 37.333 M104.16 37.333 C99.625 36.781, 95.29 36.857, 93.493 37.333 M93.493 37.333 C93.463 36.594, 91.145 37.891, 89.067 34.933 M93.493 37.333 C89.715 35.505, 91.303 37.876, 89.067 34.933 M89.067 34.933 C85.195 29.1, 82.649 24.443, 80 21.333 M89.067 34.933 C86.698 30.494, 84.743 28.017, 80 21.333 M80 21.333 C76.109 20.794, 72.252 20.707, 69.333 21.333 M80 21.333 C76.082 21.781, 71.789 21.225, 69.333 21.333 M69.333 21.333 C74.322 25.947, 76.701 32.714, 78.613 35.253 M69.333 21.333 C73.079 27.032, 75.692 32.07, 78.613 35.253 M78.613 35.253 C77.743 36.833, 77.999 37.7, 77.493 37.333 M78.613 35.253 C78.138 38.406, 76.52 38.387, 77.493 37.333 M77.493 37.333 C74.556 37.992, 71.132 37.976, 66.827 37.333 M77.493 37.333 C73.498 36.779, 68.736 37.419, 66.827 37.333 M66.827 37.333 C66.7 36.793, 63.497 37.189, 62.4 34.933 M66.827 37.333 C65.717 39.617, 63.937 37.671, 62.4 34.933 M62.4 34.933 C60.666 30.936, 59.761 29.101, 53.333 21.333 M62.4 34.933 C60.181 31.436, 57.535 27.432, 53.333 21.333 M53.333 21.333 C51.305 21.79, 47.339 21.021, 42.667 21.333 M53.333 21.333 C49.805 21.12, 46.255 20.736, 42.667 21.333 M42.667 21.333 C45.814 26.8, 50.562 30.75, 51.947 35.253 M42.667 21.333 C44.996 25.053, 47.188 27.18, 51.947 35.253 M51.947 35.253 C52.476 34.401, 51.249 37.548, 50.827 37.333 M51.947 35.253 C52.929 36.143, 52.484 37.997, 50.827 37.333 M50.827 37.333 C45.806 37.227, 42.188 37.774, 40.16 37.333 M50.827 37.333 C46.424 37.424, 42.678 36.951, 40.16 37.333 M40.16 37.333 C39.383 37.661, 38.143 35.69, 35.733 34.933 M40.16 37.333 C38.99 37.57, 35.024 35.154, 35.733 34.933 M35.733 34.933 C33.646 29.54, 29.18 24.16, 26.667 21.333 M35.733 34.933 C33.648 31.951, 31.074 28.581, 26.667 21.333 M26.667 21.333 C24.198 21.125, 23.115 21.603, 21.333 21.333 M26.667 21.333 C24.319 21.234, 22.257 21.265, 21.333 21.333 M21.333 21.333 C16.309 19.769, 11.909 27.217, 10.72 32 M21.333 21.333 C13.856 20.035, 10.045 27.922, 10.72 32 M10.72 32 C9.969 49.555, 12.202 64.604, 10.667 96 M10.72 32 C11.76 50.364, 11.253 67.738, 10.667 96 M10.667 96 C9.178 103.401, 14.799 105.241, 21.333 106.667 M10.667 96 C9.905 100.857, 15.029 107.204, 21.333 106.667 M21.333 106.667 C37.697 106.77, 58.077 105.129, 106.667 106.667 M21.333 106.667 C46.81 106.159, 72.744 106.284, 106.667 106.667 M106.667 106.667 C112.034 106.923, 118.505 101.05, 117.333 96 M106.667 106.667 C113.663 105.803, 117.435 102.968, 117.333 96 M117.333 96 C116.102 80.531, 117.338 62.885, 117.333 24 M117.333 96 C117.11 66.792, 117.567 39.036, 117.333 24 M117.333 24 C115.712 21.288, 116.798 23.095, 114.667 21.333 M117.333 24 C118.786 21.738, 117.066 22.371, 114.667 21.333 M114.667 21.333 C114.667 21.333, 114.667 21.333, 114.667 21.333 M114.667 21.333 C114.667 21.333, 114.667 21.333, 114.667 21.333 M60 81.333 C57.582 86.801, 54.109 90.615, 53.333 96 M60 81.333 C58.014 84.897, 56.781 89.008, 53.333 96 M53.333 96 C49.814 90.888, 48.499 83.103, 46.667 81.333 M53.333 96 C51.719 92.442, 49.384 87.96, 46.667 81.333 M46.667 81.333 C43.046 77.708, 37.485 77.221, 32 74.667 M46.667 81.333 C41.164 79.788, 35.776 76.796, 32 74.667 M32 74.667 C36.705 72.727, 39.591 70.721, 46.667 68 M32 74.667 C35.942 73.419, 39.412 72.325, 46.667 68 M46.667 68 C47.554 62.868, 52.014 57.243, 53.333 53.333 M46.667 68 C48.068 64.361, 50.118 61.639, 53.333 53.333 M53.333 53.333 C53.506 55.179, 57.662 58.029, 60 68 M53.333 53.333 C56.896 59.763, 58.962 64.743, 60 68 M60 68 C64.117 70.006, 67.775 71.671, 74.667 74.667 M60 68 C65.202 69.928, 71.536 73.781, 74.667 74.667 M74.667 74.667 C70.472 77.141, 65.549 76.769, 60 81.333 M74.667 74.667 C70.851 76.68, 68.384 76.865, 60 81.333 M60 81.333 C60 81.333, 60 81.333, 60 81.333 M60 81.333 C60 81.333, 60 81.333, 60 81.333 M90.347 63.68 C87.836 68.777, 87.501 73.029, 85.333 74.667 M90.347 63.68 C89.943 66.046, 88.185 68.473, 85.333 74.667 M85.333 74.667 C84.588 71.295, 81.084 67.534, 80.32 63.68 M85.333 74.667 C82.961 70.505, 81.318 67.631, 80.32 63.68 M80.32 63.68 C75.689 62.822, 73.449 58.998, 69.333 58.667 M80.32 63.68 C76.204 61.635, 71.903 59.535, 69.333 58.667 M69.333 58.667 C72.27 56.396, 73.602 56.923, 80.32 53.653 M69.333 58.667 C72.922 57.213, 75.415 56.072, 80.32 53.653 M80.32 53.653 C81.727 49.61, 82.508 46.728, 85.333 42.667 M80.32 53.653 C82.499 49.945, 83.785 45.041, 85.333 42.667 M85.333 42.667 C86.023 47.291, 87.907 50.696, 90.347 53.653 M85.333 42.667 C86.172 45.423, 88.378 48.87, 90.347 53.653 M90.347 53.653 C93.451 56.248, 99.658 58.137, 101.333 58.667 M90.347 53.653 C94.884 55.066, 99.101 56.916, 101.333 58.667 M101.333 58.667 C98.518 60.538, 94.524 63.415, 90.347 63.68 M101.333 58.667 C97.259 59.83, 93.539 61.385, 90.347 63.68 M90.347 63.68 C90.347 63.68, 90.347 63.68, 90.347 63.68 M90.347 63.68 C90.347 63.68, 90.347 63.68, 90.347 63.68" stroke="black" stroke-width="1" fill="none"></path></g></g></svg>