<svg xmlns="http://www.w3.org/2000/svg" xmlns:xlink="http://www.w3.org/1999/xlink" width="24.0" height="24.0" stroke-linecap="round" viewBox="0 0 24.0 24.0"><g transform="scale(0.1875 0.1875)"><g><path d="M14.709 84.337 C14.709 84.337, 14.709 84.337, 14.709 84.337 M14.709 84.337 C14.709 84.337, 14.709 84.337, 14.709 84.337 M14.448 90.735 C23.725 79.288, 35.633 65.518, 42.002 59.037 M14.448 90.735 C25.442 78.812, 34.235 67.256, 42.002 59.037 M17.467 93.359 C25.5 86.595, 31.58 77.995, 50.27 55.624 M17.467 93.359 C27.163 81.891, 36.055 72.09, 50.27 55.624 M30.983 83.908 C40.113 72.964, 49.684 64.365, 54.601 56.739 M30.983 83.908 C35.549 78.689, 42.072 71.199, 54.601 56.739 M51.059 66.91 C52.992 63.847, 56.441 61.882, 58.932 57.854 M51.059 66.91 C54.108 63.575, 57.796 59.598, 58.932 57.854 M54.734 68.78 C56.39 66.047, 58.796 64.585, 61.95 60.478 M54.734 68.78 C57.439 65.528, 60.102 61.943, 61.95 60.478 M57.753 71.404 C59.013 69.052, 61.609 67.303, 64.969 63.102 M57.753 71.404 C60.78 68.429, 64.002 65.236, 64.969 63.102 M89.9 34.423 C90.642 33.665, 91.233 32.644, 91.868 32.159 M89.9 34.423 C90.471 33.747, 91.072 32.995, 91.868 32.159 M60.772 74.028 C61.759 71.556, 63.473 70.526, 67.988 65.726 M60.772 74.028 C61.916 72.112, 64.272 70.061, 67.988 65.726 M91.606 38.557 C93.189 36.248, 94.706 35.76, 96.855 32.519 M91.606 38.557 C93.518 36.545, 95.987 33.825, 96.855 32.519 M63.79 76.652 C66.234 74.258, 69.644 70.599, 71.007 68.351 M63.79 76.652 C65.293 74.829, 67.573 73.216, 71.007 68.351 M94.625 41.181 C96.645 39.313, 99.911 36.012, 101.842 32.879 M94.625 41.181 C96.227 39.433, 98.54 36.627, 101.842 32.879 M68.121 77.767 C74.333 70.867, 82.819 61.336, 91.739 50.598 M68.121 77.767 C74.849 71.501, 80.807 64.341, 91.739 50.598 M97.644 43.805 C99.698 40.326, 103.925 38.877, 107.485 32.485 M97.644 43.805 C99.233 41.836, 101.597 38.368, 107.485 32.485 M73.108 78.127 C80.798 67.673, 90.243 56.214, 112.472 32.845 M73.108 78.127 C88.299 61.369, 101.705 43.771, 112.472 32.845 M80.064 76.223 C90.713 62.553, 99.69 52.455, 117.459 33.205 M80.064 76.223 C89.414 66.041, 99.852 55.156, 117.459 33.205 M106.044 52.433 C109.628 47.4, 112.362 44.254, 117.197 39.603 M106.044 52.433 C110.223 47.55, 112.974 43.72, 117.197 39.603 M109.063 55.057 C111.678 52.183, 115.182 47.986, 116.936 46 M109.063 55.057 C110.982 52.486, 112.835 50.62, 116.936 46 M111.426 58.436 C112.717 56.783, 115.346 54.367, 117.331 51.643 M111.426 58.436 C113.935 56.112, 115.99 53.201, 117.331 51.643 M115.757 59.551 C116.16 59.191, 116.839 58.416, 117.069 58.041 M115.757 59.551 C116.136 59.109, 116.521 58.51, 117.069 58.041" stroke="black" stroke-width="0.5" fill="none"></path><path d="M14.4 92.213 C15.85 93.185, 21.53 94.924, 21.92 92.213 M14.4 92.213 C16.665 94.273, 21.853 95.275, 21.92 92.213 M21.92 92.213 C31.179 85.158, 39.39 73.775, 46.4 67.733 M21.92 92.213 C28.796 83.936, 36.4 77.753, 46.4 67.733 M46.4 67.733 C47.58 64.681, 52.944 67.168, 53.92 67.733 M46.4 67.733 C46.274 65.297, 52.128 64.394, 53.92 67.733 M53.92 67.733 C54.974 68.869, 57.012 70.057, 60.16 73.973 M53.92 67.733 C56.486 69.513, 57.98 72.265, 60.16 73.973 M60.16 73.973 C67.926 82.06, 75.613 78.577, 82.773 73.973 M60.16 73.973 C67.719 78.156, 76.686 78.049, 82.773 73.973 M82.773 73.973 C89.413 66.029, 96.157 59.072, 105.067 51.733 M82.773 73.973 C89.148 66.403, 95.945 60.919, 105.067 51.733 M105.067 51.733 C108.077 53.443, 109.297 56.654, 112.747 59.413 M105.067 51.733 C107.18 53.845, 109.211 56.184, 112.747 59.413 M112.747 59.413 C115.422 62.607, 118.5 60.429, 117.196 58.174 M112.747 59.413 C116.476 60.457, 115.46 60.494, 117.196 58.174 M117.196 58.174 C117.118 56.57, 118.651 58.311, 117.28 57.547 M117.196 58.174 C116.18 59.186, 116.303 59.395, 117.28 57.547 M117.28 57.547 C118.734 51.852, 118.002 44.825, 117.28 34.667 M117.28 57.547 C116.626 51.625, 118.007 44.347, 117.28 34.667 M117.28 34.667 C118.061 33.252, 115.692 30.242, 114.667 32 M117.28 34.667 C115.216 32.324, 114.058 33.672, 114.667 32 M114.667 32 C110.747 30.884, 102.073 31.185, 91.787 32 M114.667 32 C109.92 32.555, 102.912 32.631, 91.787 32 M91.787 32 C89.841 30.888, 86.632 35.233, 89.92 36.533 M91.787 32 C90.702 31.544, 89.15 32.889, 89.92 36.533 M89.92 36.533 C91.061 37.181, 93.966 39.304, 97.6 44.213 M89.92 36.533 C92.105 39.692, 95.653 42.192, 97.6 44.213 M97.6 44.213 C90.766 54.41, 80.538 61.055, 75.36 66.453 M97.6 44.213 C89.733 53.293, 80.934 62.239, 75.36 66.453 M75.36 66.453 C74.402 70.318, 71.134 67.45, 67.84 66.453 M75.36 66.453 C72.101 69.461, 70.91 67.63, 67.84 66.453 M67.84 66.453 C65.349 64.244, 63.909 63.064, 61.6 60.213 M67.84 66.453 C65.388 63.927, 62.73 61.48, 61.6 60.213 M61.6 60.213 C56.132 53.22, 44.319 53.284, 38.987 60.213 M61.6 60.213 C54.655 56.072, 44.259 54.254, 38.987 60.213 M38.987 60.213 C31.938 65.541, 26.453 72.537, 14.4 84.693 M38.987 60.213 C30.725 67.144, 24.594 74.471, 14.4 84.693 M14.4 84.693 C13.014 86.381, 12.26 91.612, 14.4 92.213 M14.4 84.693 C13.967 86.431, 13.083 89.635, 14.4 92.213 M14.4 92.213 C14.4 92.213, 14.4 92.213, 14.4 92.213 M14.4 92.213 C14.4 92.213, 14.4 92.213, 14.4 92.213" stroke="black" stroke-width="1" fill="none"></path></g></g></svg>